<svg width="24" height="24" viewBox="0 0 24 24" fill="none" xmlns="http://www.w3.org/2000/svg">
<g clip-path="url(#clip0_65_2)">
<path d="M24 2.81752C24 1.26144 22.9504 0 21.6557 0H2.34432C1.04958 0 0 1.26144 0 2.81752V21.1825C0 22.7386 1.04958 24 2.34432 24H21.6557C22.9504 24 24 22.7386 24 21.1825V2.81752ZM2.35688 2.2516H21.6741C21.9326 2.2516 22.1407 2.49941 22.1407 2.81017V2.83461L12.3465 14.607C12.2271 14.7506 12.0881 14.7721 12.0156 14.7721C11.9431 14.7721 11.8036 14.7506 11.6841 14.607L1.88764 2.83301V2.81017C1.88764 2.49941 2.09835 2.2516 2.35688 2.2516ZM21.6741 21.7484H2.35688C2.09835 21.7484 1.88764 21.4911 1.88764 21.1804V6.02066L10.3583 16.2009C10.8011 16.733 11.3899 17.0261 12.016 17.0261C12.6423 17.026 13.2299 16.7329 13.6727 16.2008L22.1407 6.02224V21.1804C22.1407 21.4911 21.9326 21.7484 21.6741 21.7484Z" fill="white"/>
</g>
<defs>
<clipPath id="clip0_65_2">
<rect width="24" height="24" fill="white"/>
</clipPath>
</defs>
</svg>
