<svg width="311" height="35" viewBox="0 0 311 35" fill="none" xmlns="http://www.w3.org/2000/svg">
<path d="M12.8 7.68L14.4 11.232L4.288 15.456L14.4 19.552L12.8 23.232L0 17.696V13.248L12.8 7.68ZM24.8818 17.632H22.8338V26.112H17.5858V3.936H24.8498C27.8791 3.936 30.1511 4.4907 31.6657 5.6C33.2018 6.7093 33.9698 8.4053 33.9698 10.688C33.9698 12.1173 33.6284 13.312 32.9458 14.272C32.2631 15.2107 31.1858 16.0107 29.7138 16.672L35.3458 26.112H29.4258L24.8818 17.632ZM22.8338 14.016H25.0418C26.2151 14.016 27.0898 13.7493 27.6658 13.216C28.2631 12.6827 28.5618 11.84 28.5618 10.688C28.5618 9.6213 28.2418 8.8427 27.6018 8.352C26.9831 7.8613 26.0231 7.616 24.7218 7.616H22.8338V14.016ZM44.131 8.576C46.7337 8.576 48.771 9.376 50.243 10.976C51.715 12.5547 52.451 14.7733 52.451 17.632C52.451 19.4453 52.1097 21.0347 51.427 22.4C50.7657 23.744 49.8057 24.7893 48.547 25.536C47.3097 26.2827 45.8377 26.656 44.131 26.656C41.5497 26.656 39.5123 25.8667 38.019 24.288C36.547 22.688 35.811 20.4587 35.811 17.6C35.811 15.7867 36.1417 14.208 36.803 12.864C37.4857 11.4987 38.4457 10.4427 39.683 9.696C40.9417 8.9493 42.4243 8.576 44.131 8.576ZM44.131 12.288C43.107 12.288 42.339 12.7253 41.827 13.6C41.315 14.4533 41.059 15.7867 41.059 17.6C41.059 19.456 41.3043 20.8107 41.795 21.664C42.307 22.5173 43.0857 22.944 44.131 22.944C45.155 22.944 45.923 22.5173 46.435 21.664C46.947 20.7893 47.203 19.4453 47.203 17.632C47.203 15.776 46.947 14.4213 46.435 13.568C45.9443 12.7147 45.1763 12.288 44.131 12.288ZM70.6905 2.368V26.112H66.2105L65.9545 24.128C64.7598 25.8133 63.1492 26.656 61.1225 26.656C59.0105 26.656 57.3998 25.8453 56.2905 24.224C55.2025 22.6027 54.6585 20.384 54.6585 17.568C54.6585 15.84 54.9465 14.2933 55.5225 12.928C56.0985 11.5627 56.9092 10.496 57.9545 9.728C59.0212 8.96 60.2372 8.576 61.6025 8.576C63.2238 8.576 64.5678 9.1093 65.6345 10.176V1.824L70.6905 2.368ZM62.6905 22.944C63.8638 22.944 64.8452 22.304 65.6345 21.024V13.696C65.2292 13.2053 64.8132 12.8427 64.3865 12.608C63.9812 12.3733 63.5118 12.256 62.9785 12.256C62.0398 12.256 61.2932 12.6933 60.7385 13.568C60.1838 14.4427 59.9065 15.7867 59.9065 17.6C59.9065 19.584 60.1412 20.9707 60.6105 21.76C61.1012 22.5493 61.7945 22.944 62.6905 22.944ZM83.862 8.64C84.481 8.64 85.046 8.7147 85.558 8.864L84.758 13.76C84.118 13.6107 83.606 13.536 83.222 13.536C82.219 13.536 81.4513 13.888 80.918 14.592C80.406 15.2747 80.0007 16.3093 79.702 17.696V26.112H74.646V9.12H79.062L79.478 12.416C79.862 11.2427 80.438 10.3253 81.206 9.664C81.995 8.9813 82.881 8.64 83.862 8.64ZM92.546 9.12V26.112H87.49V9.12H92.546ZM89.986 0.16C90.86 0.16 91.575 0.437299 92.13 0.991999C92.706 1.5253 92.994 2.208 92.994 3.04C92.994 3.872 92.706 4.5653 92.13 5.12C91.575 5.6533 90.86 5.92 89.986 5.92C89.111 5.92 88.396 5.6533 87.842 5.12C87.287 4.5653 87.01 3.872 87.01 3.04C87.01 2.208 87.287 1.5253 87.842 0.991999C88.396 0.437299 89.111 0.16 89.986 0.16ZM112.169 10.112C111.06 10.56 109.428 10.784 107.273 10.784C108.382 11.2533 109.193 11.8293 109.705 12.512C110.217 13.1947 110.473 14.08 110.473 15.168C110.473 16.256 110.185 17.2373 109.609 18.112C109.033 18.9653 108.201 19.6373 107.113 20.128C106.046 20.6187 104.788 20.864 103.337 20.864C102.654 20.864 102.004 20.8 101.385 20.672C101.214 20.7573 101.076 20.896 100.969 21.088C100.884 21.2587 100.841 21.44 100.841 21.632C100.841 21.952 100.958 22.208 101.193 22.4C101.449 22.5707 101.95 22.656 102.697 22.656H105.257C106.558 22.656 107.7 22.8693 108.681 23.296C109.662 23.7227 110.42 24.3093 110.953 25.056C111.486 25.8027 111.753 26.6453 111.753 27.584C111.753 29.3547 110.985 30.7307 109.449 31.712C107.934 32.7147 105.737 33.216 102.857 33.216C100.788 33.216 99.156 32.992 97.961 32.544C96.766 32.1173 95.924 31.5093 95.433 30.72C94.964 29.9307 94.729 28.9387 94.729 27.744H99.273C99.273 28.256 99.369 28.6613 99.561 28.96C99.774 29.2587 100.148 29.4827 100.681 29.632C101.214 29.7813 101.982 29.856 102.985 29.856C104.372 29.856 105.332 29.6853 105.865 29.344C106.398 29.024 106.665 28.5547 106.665 27.936C106.665 27.424 106.462 27.0187 106.057 26.72C105.652 26.4213 105.044 26.272 104.233 26.272H101.769C100.02 26.272 98.708 25.9627 97.833 25.344C96.98 24.704 96.553 23.8933 96.553 22.912C96.553 22.2933 96.734 21.696 97.097 21.12C97.46 20.5227 97.95 20.032 98.569 19.648C97.502 19.072 96.724 18.4 96.233 17.632C95.764 16.8427 95.529 15.8933 95.529 14.784C95.529 12.8853 96.212 11.3813 97.577 10.272C98.942 9.1413 100.745 8.576 102.985 8.576C104.692 8.6187 106.132 8.448 107.305 8.064C108.5 7.68 109.726 7.1147 110.985 6.368L112.169 10.112ZM103.113 11.904C102.324 11.904 101.694 12.16 101.225 12.672C100.777 13.1627 100.553 13.8453 100.553 14.72C100.553 15.6373 100.777 16.352 101.225 16.864C101.694 17.3547 102.324 17.6 103.113 17.6C103.945 17.6 104.574 17.3547 105.001 16.864C105.449 16.3733 105.673 15.6373 105.673 14.656C105.673 12.8213 104.82 11.904 103.113 11.904ZM120.787 8.576C123.39 8.576 125.427 9.376 126.899 10.976C128.371 12.5547 129.107 14.7733 129.107 17.632C129.107 19.4453 128.766 21.0347 128.083 22.4C127.422 23.744 126.462 24.7893 125.203 25.536C123.966 26.2827 122.494 26.656 120.787 26.656C118.206 26.656 116.169 25.8667 114.675 24.288C113.203 22.688 112.467 20.4587 112.467 17.6C112.467 15.7867 112.798 14.208 113.459 12.864C114.142 11.4987 115.102 10.4427 116.339 9.696C117.598 8.9493 119.081 8.576 120.787 8.576ZM120.787 12.288C119.763 12.288 118.995 12.7253 118.483 13.6C117.971 14.4533 117.715 15.7867 117.715 17.6C117.715 19.456 117.961 20.8107 118.451 21.664C118.963 22.5173 119.742 22.944 120.787 22.944C121.811 22.944 122.579 22.5173 123.091 21.664C123.603 20.7893 123.859 19.4453 123.859 17.632C123.859 15.776 123.603 14.4213 123.091 13.568C122.601 12.7147 121.833 12.288 120.787 12.288ZM141.811 3.392C144.669 3.392 147.133 4.2987 149.203 6.112L146.547 8.896C145.757 8.2987 145.021 7.872 144.339 7.616C143.677 7.3387 142.909 7.2 142.035 7.2C140.392 7.2 139.08 7.8507 138.099 9.152C137.117 10.432 136.627 12.384 136.627 15.008C136.627 17.8453 137 19.8613 137.747 21.056C138.493 22.2293 139.656 22.816 141.235 22.816C142.344 22.816 143.347 22.5707 144.243 22.08V17.056H141.363L140.851 13.344H149.331V24.32C148.179 25.0667 146.909 25.6427 145.523 26.048C144.136 26.4533 142.749 26.656 141.363 26.656C137.992 26.656 135.453 25.6747 133.747 23.712C132.04 21.728 131.187 18.8267 131.187 15.008C131.187 12.576 131.645 10.4853 132.563 8.736C133.501 6.9867 134.771 5.664 136.371 4.768C137.992 3.8507 139.805 3.392 141.811 3.392ZM160.1 8.576C162.702 8.576 164.74 9.376 166.212 10.976C167.684 12.5547 168.42 14.7733 168.42 17.632C168.42 19.4453 168.078 21.0347 167.396 22.4C166.734 23.744 165.774 24.7893 164.516 25.536C163.278 26.2827 161.806 26.656 160.1 26.656C157.518 26.656 155.481 25.8667 153.988 24.288C152.516 22.688 151.78 20.4587 151.78 17.6C151.78 15.7867 152.11 14.208 152.772 12.864C153.454 11.4987 154.414 10.4427 155.652 9.696C156.91 8.9493 158.393 8.576 160.1 8.576ZM160.1 12.288C159.076 12.288 158.308 12.7253 157.796 13.6C157.284 14.4533 157.028 15.7867 157.028 17.6C157.028 19.456 157.273 20.8107 157.764 21.664C158.276 22.5173 159.054 22.944 160.1 22.944C161.124 22.944 161.892 22.5173 162.404 21.664C162.916 20.7893 163.172 19.4453 163.172 17.632C163.172 15.776 162.916 14.4213 162.404 13.568C161.913 12.7147 161.145 12.288 160.1 12.288ZM181.379 8.576C182.851 8.576 184.003 9.024 184.835 9.92C185.667 10.816 186.083 12.0747 186.083 13.696V26.112H181.027V14.56C181.027 13.7067 180.889 13.12 180.611 12.8C180.355 12.4587 179.961 12.288 179.427 12.288C178.403 12.288 177.422 13.024 176.483 14.496V26.112H171.427V9.12H175.843L176.195 11.136C176.921 10.2827 177.699 9.6427 178.531 9.216C179.385 8.7893 180.334 8.576 181.379 8.576ZM203.08 24.64C201.629 25.792 200.019 26.4533 198.248 26.624V27.648C199.379 27.776 200.211 28.1067 200.744 28.64C201.299 29.1947 201.576 29.92 201.576 30.816C201.576 31.904 201.139 32.7893 200.264 33.472C199.411 34.1547 198.259 34.496 196.808 34.496C196.083 34.496 195.411 34.4 194.792 34.208C194.173 34.0373 193.651 33.8133 193.224 33.536L194.376 31.2C195.101 31.5627 195.784 31.744 196.424 31.744C197.427 31.744 197.928 31.424 197.928 30.784C197.928 30.4 197.693 30.1227 197.224 29.952C196.755 29.7813 196.008 29.696 194.984 29.696L195.368 26.464C193.363 26.0587 191.784 25.088 190.632 23.552C189.501 22.016 188.936 20.0853 188.936 17.76C188.936 15.968 189.277 14.3787 189.96 12.992C190.643 11.6053 191.613 10.528 192.872 9.76C194.131 8.9707 195.592 8.576 197.256 8.576C198.429 8.576 199.485 8.7467 200.424 9.088C201.363 9.4293 202.248 9.952 203.08 10.656L200.904 13.664C199.837 12.8533 198.76 12.448 197.672 12.448C196.541 12.448 195.688 12.864 195.112 13.696C194.536 14.528 194.248 15.872 194.248 17.728C194.248 19.52 194.536 20.7893 195.112 21.536C195.688 22.2827 196.52 22.656 197.608 22.656C198.184 22.656 198.707 22.5707 199.176 22.4C199.645 22.208 200.211 21.9093 200.872 21.504L203.08 24.64ZM218.4 21.184C218.4 21.824 218.485 22.2933 218.656 22.592C218.848 22.8907 219.147 23.1147 219.552 23.264L218.496 26.56C217.451 26.4747 216.597 26.2507 215.936 25.888C215.275 25.504 214.763 24.9067 214.4 24.096C213.291 25.8027 211.584 26.656 209.28 26.656C207.595 26.656 206.251 26.1653 205.248 25.184C204.245 24.2027 203.744 22.9227 203.744 21.344C203.744 19.488 204.427 18.0693 205.792 17.088C207.157 16.1067 209.131 15.616 211.712 15.616H213.44V14.88C213.44 13.8773 213.227 13.1947 212.8 12.832C212.373 12.448 211.627 12.256 210.56 12.256C210.005 12.256 209.333 12.3413 208.544 12.512C207.755 12.6613 206.944 12.8747 206.112 13.152L204.96 9.824C206.027 9.4187 207.115 9.1093 208.224 8.896C209.355 8.6827 210.4 8.576 211.36 8.576C213.792 8.576 215.573 9.0773 216.704 10.08C217.835 11.0827 218.4 12.5867 218.4 14.592V21.184ZM210.752 23.04C211.904 23.04 212.8 22.496 213.44 21.408V18.4H212.192C211.04 18.4 210.176 18.6027 209.6 19.008C209.045 19.4133 208.768 20.0427 208.768 20.896C208.768 21.5787 208.939 22.112 209.28 22.496C209.643 22.8587 210.133 23.04 210.752 23.04ZM226.627 26.656C225.155 26.656 224.003 26.24 223.171 25.408C222.36 24.5547 221.955 23.3493 221.955 21.792V2.368L227.011 1.824V21.6C227.011 22.304 227.299 22.656 227.875 22.656C228.173 22.656 228.451 22.6027 228.707 22.496L229.699 26.08C228.781 26.464 227.757 26.656 226.627 26.656ZM245.926 9.12L240.582 26.112H234.598L229.126 9.12H234.63L237.638 22.272L240.774 9.12H245.926ZM262.275 17.28C262.275 17.984 262.243 18.592 262.179 19.104H251.651C251.821 20.5333 252.227 21.536 252.867 22.112C253.507 22.688 254.392 22.976 255.523 22.976C256.205 22.976 256.867 22.8587 257.507 22.624C258.147 22.368 258.84 21.984 259.587 21.472L261.667 24.288C259.683 25.8667 257.475 26.656 255.043 26.656C252.291 26.656 250.179 25.8453 248.707 24.224C247.235 22.6027 246.499 20.4267 246.499 17.696C246.499 15.968 246.808 14.4213 247.427 13.056C248.045 11.6693 248.952 10.5813 250.147 9.792C251.341 8.9813 252.771 8.576 254.435 8.576C256.888 8.576 258.808 9.344 260.195 10.88C261.581 12.416 262.275 14.5493 262.275 17.28ZM257.315 15.84C257.272 13.2373 256.355 11.936 254.563 11.936C253.688 11.936 253.005 12.256 252.515 12.896C252.045 13.536 251.757 14.592 251.651 16.064H257.315V15.84ZM271.099 8.576C272.315 8.576 273.456 8.7573 274.523 9.12C275.589 9.4827 276.528 9.9947 277.339 10.656L275.483 13.504C274.096 12.6293 272.699 12.192 271.291 12.192C270.629 12.192 270.117 12.3093 269.755 12.544C269.413 12.7573 269.243 13.0667 269.243 13.472C269.243 13.792 269.317 14.0587 269.467 14.272C269.637 14.464 269.968 14.6667 270.459 14.88C270.949 15.0933 271.707 15.3493 272.731 15.648C274.501 16.16 275.813 16.832 276.667 17.664C277.541 18.4747 277.979 19.6053 277.979 21.056C277.979 22.208 277.648 23.2107 276.987 24.064C276.325 24.896 275.419 25.536 274.267 25.984C273.115 26.432 271.835 26.656 270.427 26.656C268.997 26.656 267.664 26.432 266.427 25.984C265.211 25.536 264.176 24.9173 263.323 24.128L265.787 21.376C267.216 22.4853 268.72 23.04 270.299 23.04C271.067 23.04 271.664 22.9013 272.091 22.624C272.539 22.3467 272.763 21.952 272.763 21.44C272.763 21.0347 272.677 20.7147 272.507 20.48C272.336 20.2453 272.005 20.032 271.515 19.84C271.024 19.6267 270.245 19.3707 269.179 19.072C267.493 18.5813 266.235 17.8987 265.403 17.024C264.571 16.1493 264.155 15.0613 264.155 13.76C264.155 12.7787 264.432 11.904 264.987 11.136C265.563 10.3467 266.373 9.728 267.419 9.28C268.485 8.8107 269.712 8.576 271.099 8.576ZM288.488 0L292.904 0.991999L285.384 29.696L280.936 28.672L288.488 0ZM297.913 7.68L310.713 13.248V17.696L297.913 23.232L296.313 19.552L306.425 15.456L296.313 11.232L297.913 7.68Z" fill="#00684A"/>
</svg>
