<svg width="24" height="24" viewBox="0 0 24 24" fill="none" xmlns="http://www.w3.org/2000/svg">
<path fill-rule="evenodd" clip-rule="evenodd" d="M20.5032 3.48774C18.2471 1.23981 15.2467 0.00130343 12.0501 0C5.46355 0 0.102786 5.33471 0.100216 11.8918C0.0992939 13.9879 0.649558 16.0338 1.69532 17.8373L0 24L6.33478 22.3462C8.08017 23.2937 10.0453 23.7931 12.0453 23.7938H12.0502C12.0498 23.7938 12.0506 23.7938 12.0502 23.7938C18.636 23.7938 23.9972 18.4585 24 11.9013C24.0012 8.72353 22.7593 5.73558 20.5032 3.48774ZM12.0501 21.7853H12.0461C10.264 21.7846 8.5159 21.308 6.99094 20.4075L6.6283 20.1933L2.86915 21.1746L3.87256 17.527L3.63638 17.153C2.64218 15.5792 2.11709 13.7602 2.11787 11.8925C2.12 6.44248 6.57567 2.00859 12.0542 2.00859C14.707 2.00941 17.2008 3.03898 19.076 4.90737C20.9512 6.77577 21.9834 9.25929 21.9823 11.9005C21.9801 17.3509 17.5245 21.7853 12.0501 21.7853Z" fill="white"/>
<path fill-rule="evenodd" clip-rule="evenodd" d="M17.4981 14.3822C17.1996 14.2335 15.7316 13.5147 15.4579 13.4155C15.1842 13.3163 14.9851 13.2667 14.7861 13.5642C14.5871 13.8616 14.0149 14.531 13.8407 14.7294C13.6665 14.9276 13.4923 14.9525 13.1938 14.8037C12.8952 14.6549 11.9331 14.3412 10.7927 13.3288C9.90499 12.5408 9.30578 11.5678 9.13155 11.2702C8.95741 10.9728 9.11302 10.812 9.26252 10.6638C9.39683 10.5306 9.56113 10.3167 9.71043 10.1432C9.85969 9.96971 9.90945 9.84565 10.009 9.64748C10.1085 9.44911 10.0588 9.27556 9.98411 9.12688C9.90945 8.97814 9.31233 7.5155 9.06354 6.92041C8.8211 6.34105 8.57498 6.41955 8.39167 6.41033C8.21777 6.40169 8.01845 6.3999 7.81943 6.3999C7.6204 6.3999 7.29686 6.47429 7.02323 6.77172C6.74956 7.06924 5.97815 7.7882 5.97815 9.2507C5.97815 10.7134 7.04807 12.1264 7.19737 12.3247C7.34663 12.5231 9.30282 15.5245 12.298 16.8116C13.0104 17.1178 13.5666 17.3007 14.0002 17.4376C14.7155 17.6638 15.3664 17.6318 15.8809 17.5553C16.4546 17.47 17.6475 16.8365 17.8962 16.1424C18.1451 15.4482 18.1451 14.8532 18.0704 14.7293C17.9958 14.6054 17.7967 14.531 17.4981 14.3822Z" fill="white"/>
</svg>
